<?xml version="1.0" standalone="no"?>
<!DOCTYPE svg PUBLIC "-//W3C//DTD SVG 20010904//EN"
 "http://www.w3.org/TR/2001/REC-SVG-20010904/DTD/svg10.dtd">
<svg version="1.0" xmlns="http://www.w3.org/2000/svg"
 width="1300.000000pt" height="1300.000000pt" viewBox="0 0 1300.000000 1300.000000"
 preserveAspectRatio="xMidYMid meet">
<metadata>
Created by potrace 1.11, written by Peter Selinger 2001-2013
</metadata>
<g transform="translate(0.000000,1300.000000) scale(0.100000,-0.100000)"
fill="#000000" stroke="none">
<path d="M0 6500 l0 -6500 6500 0 6500 0 0 6500 0 6500 -6500 0 -6500 0 0
-6500z m7115 5889 c2 -3 -19 -214 -46 -469 l-49 -465 0 -372 0 -373 -34 0
c-19 0 -37 -4 -40 -8 -4 -8 -316 -2942 -316 -2976 0 -8 37 -22 93 -35 197 -48
383 -148 537 -288 l55 -50 1904 1378 c1047 759 1908 1379 1912 1379 9 0 192
-251 193 -266 1 -7 -264 -204 -589 -439 -324 -235 -594 -432 -600 -437 -15
-16 -10 -13 595 336 310 180 569 325 575 323 5 -2 27 -34 49 -71 32 -57 36
-70 25 -80 -8 -7 -302 -179 -654 -381 -352 -203 -654 -377 -672 -388 l-32 -18
-38 66 c-21 36 -43 64 -50 63 -24 -6 -2413 -1741 -2413 -1753 0 -7 13 -42 30
-78 123 -271 123 -641 2 -927 -87 -205 -227 -386 -395 -509 -46 -34 -56 -45
-48 -59 5 -9 293 -613 641 -1342 347 -729 634 -1327 637 -1330 2 -3 23 5 45
18 23 12 42 21 44 20 10 -12 784 -1360 784 -1367 0 -10 -228 -146 -234 -140
-2 2 -146 252 -321 554 -174 303 -318 552 -320 553 -2 2 -42 -14 -88 -36 l-85
-40 -708 1485 c-390 816 -711 1486 -716 1489 -4 3 -53 -5 -110 -17 -130 -26
-324 -29 -450 -5 -250 47 -460 158 -638 336 -232 232 -352 522 -352 850 0 328
120 618 352 850 225 225 507 346 826 353 l109 3 156 1484 c86 817 154 1488
152 1493 -2 4 -76 7 -164 7 l-159 0 0 790 0 790 248 2 247 3 3 40 c4 65 7 68
58 62 25 -2 47 -6 49 -8z m-765 -889 l0 -790 -255 0 -255 0 0 790 0 790 255 0
255 0 0 -790z m-1932 -390 c215 -374 392 -684 392 -689 0 -9 -400 -245 -405
-239 -17 18 -785 1362 -783 1370 3 8 384 236 398 237 3 1 182 -305 398 -679z
m4776 488 c31 -18 55 -36 53 -39 -1 -3 -179 -313 -396 -688 l-394 -681 -61 34
c-33 20 -60 39 -59 43 1 6 746 1300 780 1356 7 12 19 8 77 -25z m258 -150 c29
-17 54 -32 56 -34 3 -2 -775 -1353 -787 -1366 -3 -4 -34 8 -68 28 l-62 34 126
218 c69 119 247 427 395 685 148 257 274 467 279 467 5 0 32 -14 61 -32z
m-5575 -664 c215 -373 389 -682 385 -686 -12 -12 -390 -228 -399 -228 -4 0
-185 307 -401 681 -262 453 -390 685 -384 691 20 20 387 228 397 225 5 -2 186
-309 402 -683z m-1482 -1339 c341 -196 632 -365 647 -374 l28 -17 -110 -191
-111 -192 -217 126 c-119 69 -428 247 -685 395 -257 149 -467 276 -465 282 2
6 50 93 108 193 l105 182 40 -23 c22 -13 319 -184 660 -381z m9125 -176 c23
-39 38 -75 34 -79 -14 -12 -1366 -791 -1368 -788 -2 2 -22 36 -45 77 -32 57
-39 76 -29 82 648 377 1346 778 1354 778 7 1 31 -31 54 -70z m-9431 -338 l681
-393 -37 -67 c-121 -214 -179 -311 -186 -311 -19 0 -1367 785 -1365 795 6 22
213 375 219 372 3 -1 313 -179 688 -396z m161 -2136 l0 -205 -790 0 -790 0 0
205 0 205 790 0 790 0 0 -205z m9960 -80 l0 -105 -790 0 -790 0 0 105 0 105
790 0 790 0 0 -105z m0 -370 l0 -105 -790 0 -790 0 0 105 0 105 790 0 790 0 0
-105z m-9960 -120 l0 -205 -790 0 -790 0 0 205 0 205 790 0 790 0 0 -205z
m438 -1576 c51 -89 91 -163 90 -164 -19 -18 -1362 -785 -1370 -783 -5 2 -50
73 -99 158 -89 154 -89 155 -68 169 31 21 1343 780 1349 780 3 1 47 -72 98
-160z m8237 -334 c371 -214 675 -394 675 -398 0 -14 -115 -207 -121 -204 -3 1
-313 179 -688 396 l-681 393 37 67 c57 104 83 143 93 139 5 -2 313 -178 685
-393z m8 -467 c257 -148 467 -273 467 -278 0 -14 -112 -200 -121 -200 -6 0
-1354 774 -1367 785 -2 2 24 50 58 108 l61 105 217 -125 c119 -69 427 -247
685 -395z m-7978 338 c47 -82 84 -154 82 -160 -4 -9 -548 -326 -1318 -768
l-48 -28 -92 161 c-57 100 -88 164 -82 170 23 23 1359 787 1365 781 3 -4 45
-74 93 -156z m1192 -1175 l141 -82 -125 -217 c-69 -119 -247 -427 -395 -684
-148 -258 -273 -468 -277 -468 -8 0 -278 154 -288 163 -2 3 149 272 338 599
447 774 449 779 457 775 4 -3 71 -41 149 -86z m5098 -618 c215 -372 390 -680
390 -686 0 -5 -51 -39 -113 -75 -95 -54 -116 -62 -126 -51 -15 17 -774 1333
-778 1349 -3 11 207 140 227 140 5 0 186 -305 400 -677z m-4617 340 l93 -55
-24 -41 c-14 -23 -190 -328 -391 -677 -202 -349 -371 -639 -376 -644 -9 -9
-302 154 -297 165 1 3 179 313 396 688 l394 681 56 -31 c31 -17 98 -56 149
-86z m1742 -1193 l0 -790 -155 0 -155 0 0 790 0 790 155 0 155 0 0 -790z m470
0 l0 -790 -155 0 -155 0 0 790 0 790 155 0 155 0 0 -790z"/>
<path d="M6321 7400 c-215 -30 -427 -149 -567 -318 -67 -81 -147 -238 -175
-347 -17 -62 -21 -110 -21 -215 0 -105 4 -153 21 -215 28 -109 108 -266 175
-347 80 -97 176 -172 291 -229 146 -72 230 -91 395 -91 165 0 249 19 395 91
178 88 308 218 396 396 72 146 91 230 91 395 0 165 -19 249 -91 395 -88 178
-218 308 -396 396 -55 27 -135 58 -177 69 -93 23 -248 32 -337 20z"/>
</g>
</svg>
